<?xml version="1.0" encoding="UTF-8"?>
<svg width="50px" height="9px" viewBox="0 0 50 9" version="1.1" xmlns="http://www.w3.org/2000/svg" xmlns:xlink="http://www.w3.org/1999/xlink">
    <title>PREMIUM</title>
    <defs>
        <linearGradient x1="96.0210161%" y1="50%" x2="7.47214141%" y2="49.4298366%" id="linearGradient-1">
            <stop stop-color="#257BF3" offset="0%"></stop>
            <stop stop-color="#1031E3" offset="100%"></stop>
        </linearGradient>
    </defs>
    <g id="移动端" stroke="none" stroke-width="1" fill="none" fill-rule="evenodd">
        <g id="轨迹/圈速" transform="translate(-98, -95)" fill="url(#linearGradient-1)">
            <g id="PREMIUM" transform="translate(97, 91)">
                <path d="M1.2890625,4.34375 L8.0234375,4.34375 L8.0234375,9.0859375 C8.0234375,9.09114583 8.01822917,9.09375 8.0078125,9.09375 L3.6796875,9.09375 L3.6796875,12.3671875 L1.2890625,12.3671875 L1.2890625,4.34375 Z M3.6796875,5.8046875 L3.6796875,8.359375 L5.890625,7.6875 L5.890625,5.8046875 L3.6796875,5.8046875 Z M8.8046875,4.3515625 L15.1328125,4.3515625 L15.1328125,9.1015625 L11.1953125,9.1015625 L11.1953125,12.375 L8.8046875,12.375 L8.8046875,4.3515625 Z M11.1953125,5.8125 L11.1953125,8.3046875 C12.3984375,7.90364583 13.0052083,7.703125 13.015625,7.703125 L13.015625,5.8125 L11.1953125,5.8125 Z M11.703125,9.3984375 L14.09375,9.3984375 L15.78125,12.375 L13.3984375,12.375 C13.3307292,12.2708333 12.765625,11.28125 11.703125,9.40625 L11.703125,9.3984375 Z M16.578125,4.3203125 L23.4140625,4.3203125 C23.4244792,4.3203125 23.4296875,4.32552083 23.4296875,4.3359375 L23.4296875,5.78125 L18.953125,5.78125 L18.953125,7.6171875 L23.1640625,7.6171875 L23.1640625,9.078125 L18.953125,9.078125 L18.953125,11.2265625 L16.5625,11.96875 L16.5625,4.3359375 C16.5625,4.32552083 16.5677083,4.3203125 16.578125,4.3203125 Z M21.328125,10.9140625 L23.4140625,10.9140625 L23.4140625,12.3671875 L16.5625,12.3671875 L16.5625,12.3359375 C16.5625,12.3255208 16.78125,12.2578125 17.21875,12.1328125 C19.8958333,11.3307292 21.265625,10.9244792 21.328125,10.9140625 Z M24.2109375,4.34375 L26.890625,4.34375 C26.9010417,4.34375 26.9348958,4.48177083 26.9921875,4.7578125 C27.0078125,4.79427083 27.3463542,6.19010417 28.0078125,8.9453125 L28.015625,8.9453125 C28.6458333,6.09635417 28.9895833,4.5625 29.046875,4.34375 L31.8359375,4.34375 L31.8359375,12.375 L30.046875,12.375 L30.046875,7.03125 L30.0390625,7.03125 C30.0390625,7.046875 29.6380208,8.83333333 28.8359375,12.390625 L27.234375,12.390625 L26.0078125,7.2890625 L26,7.2890625 L26,12.375 L24.2109375,12.375 L24.2109375,4.34375 Z M32.6328125,4.3359375 L34.796875,4.3359375 C34.8072917,4.3359375 34.8125,4.34114583 34.8125,4.3515625 L34.8125,12.3515625 C34.8125,12.3619792 34.8072917,12.3671875 34.796875,12.3671875 L32.6171875,12.3671875 L32.6171875,4.3515625 C32.6171875,4.34114583 32.6223958,4.3359375 32.6328125,4.3359375 Z M35.59375,4.3359375 L37.8515625,4.3359375 L37.8515625,11.265625 C37.8411458,11.28125 37.6276042,11.3489583 37.2109375,11.46875 C37.1536458,11.4947917 36.6145833,11.6640625 35.59375,11.9765625 L35.59375,4.3359375 Z M40.046875,4.3359375 L42.3046875,4.3359375 L42.3046875,12.375 L35.59375,12.375 L35.59375,12.328125 L40.046875,10.921875 L40.046875,4.3359375 Z M43.0859375,4.34375 L45.765625,4.34375 C45.7760417,4.34375 45.8098958,4.48177083 45.8671875,4.7578125 C45.8828125,4.79427083 46.2213542,6.19010417 46.8828125,8.9453125 L46.890625,8.9453125 C47.5208333,6.09635417 47.8645833,4.5625 47.921875,4.34375 L50.7109375,4.34375 L50.7109375,12.375 L48.921875,12.375 L48.921875,7.03125 L48.9140625,7.03125 C48.9140625,7.046875 48.5130208,8.83333333 47.7109375,12.390625 L46.109375,12.390625 L44.8828125,7.2890625 L44.875,7.2890625 L44.875,12.375 L43.0859375,12.375 L43.0859375,4.34375 Z" id="形状结合" fill-rule="nonzero"></path>
            </g>
        </g>
    </g>
</svg>